<?xml version="1.0" encoding="utf-8"?>
<!-- Generator: Adobe Illustrator 27.8.1, SVG Export Plug-In . SVG Version: 6.00 Build 0)  -->
<svg version="1.1" id="Layer_1" xmlns="http://www.w3.org/2000/svg" xmlns:xlink="http://www.w3.org/1999/xlink" x="0px" y="0px"
	 viewBox="0 0 250 250" style="enable-background:new 0 0 250 250;" xml:space="preserve">
<style type="text/css">
	.st0{fill:#7B7C7F;}
	.st1{fill:#FBF2C4;}
	.st2{fill:#B1C0C9;}
	.st3{fill:#74A892;}
	.st4{fill:#4D4D4F;}
	.st5{fill:#183E4B;}
</style>
<g>
	<circle class="st0" cx="124.1" cy="123.7" r="109.7"/>
</g>
<circle class="st1" cx="123.9" cy="123.7" r="106.2"/>
<g>
	<circle class="st2" cx="125.2" cy="124.2" r="79"/>
</g>
<circle class="st3" cx="125" cy="123.7" r="75.5"/>
<g>
	<g>
		<path class="st4" d="M134.1,33c0.5-3,3.1-4.7,5.9-4.3c2.2,0.3,3.3,1.7,3.8,3l-1.9,0.6c-0.3-0.9-1.1-1.6-2.2-1.8
			c-1.7-0.3-3.2,0.9-3.5,2.8c-0.3,1.9,0.8,3.4,2.5,3.7c1.1,0.2,2.1-0.3,2.6-1.1l1.7,1.1c-0.9,1.1-2.3,2.1-4.6,1.8
			C135.6,38.4,133.7,36,134.1,33z"/>
		<path class="st4" d="M151.3,31.2c2.9,0.8,4.4,3.5,3.6,6.4c-0.8,2.9-3.5,4.4-6.4,3.6c-2.9-0.8-4.4-3.5-3.6-6.4
			C145.7,31.8,148.4,30.3,151.3,31.2z M150.8,33c-1.8-0.5-3.3,0.5-3.8,2.3c-0.5,1.8,0.3,3.5,2,4c1.8,0.5,3.3-0.5,3.8-2.3
			C153.3,35.1,152.6,33.5,150.8,33z"/>
		<path class="st4" d="M163,46.3l2.9-6.6l-5.4,5.4l-0.8-0.4l0.3-7.7l-2.9,6.6l-1.9-0.8l4-9.1l2.7,1.2l-0.3,6.7l4.7-4.7l2.7,1.2
			l-4,9.1L163,46.3z"/>
		<path class="st4" d="M174,52.7l3.8-6.1l-6.2,4.6l-0.8-0.5l1.4-7.6l-3.8,6.1l-1.8-1.1l5.3-8.4l2.5,1.6l-1.3,6.5l5.4-4l2.5,1.6
			l-5.3,8.4L174,52.7z"/>
		<path class="st4" d="M183.8,47.4l1.6,1.4l-3.8,4.5c-0.9,1.1-0.9,2.3,0.3,3.3c1.2,1,2.4,0.7,3.3-0.3l3.8-4.5l1.6,1.4l-3.8,4.6
			c-1.6,1.9-3.8,2.3-6.1,0.3c-2.3-2-2.3-4.2-0.8-6L183.8,47.4z"/>
		<path class="st4" d="M190.4,67.2l1.7-8l-4.9,4.5l-1.4-1.6l7.3-6.8l1.5,1.6l-1.6,7.8l4.7-4.4l1.4,1.6l-7.3,6.8L190.4,67.2z"/>
		<path class="st4" d="M193.1,70.5l7.9-6.1l1.3,1.7l-7.9,6.1L193.1,70.5z"/>
		<path class="st4" d="M199.6,70.7c2.6-1.7,5.6-0.9,7.2,1.6c1.2,1.9,0.9,3.6,0.3,4.9l-1.7-1c0.4-0.8,0.5-1.9-0.1-2.8
			c-0.9-1.5-2.8-1.8-4.4-0.8s-2,2.9-1.1,4.3c0.6,0.9,1.6,1.3,2.5,1.2l0.2,2c-1.4,0.1-3.1-0.3-4.4-2.2
			C196.5,75.5,197,72.4,199.6,70.7z"/>
		<path class="st4" d="M204.3,88.8l1.3-1.3l-2-4l-1.8,0.2l-1-2.1l10.6-0.9l1.2,2.4l-7.2,7.8L204.3,88.8z M210.3,82.6l-4.8,0.5l1.5,3
			L210.3,82.6z"/>
		<path class="st4" d="M206,93.1l7.6-2.8l-1-2.7l1.7-0.7l2.8,7.4l-1.7,0.7l-1-2.7l-7.6,2.8L206,93.1z"/>
		<path class="st4" d="M208.2,99.3l9.6-2.8l0.6,2l-9.6,2.8L208.2,99.3z"/>
		<path class="st4" d="M220.3,106.1c0.6,3-1.1,5.5-4.1,6.1c-2.9,0.6-5.5-1.2-6-4.1c-0.6-2.9,1.1-5.5,4.1-6.1
			C217.2,101.4,219.7,103.1,220.3,106.1z M218.4,106.4c-0.3-1.8-2-2.7-3.8-2.3c-1.8,0.4-3,1.8-2.6,3.6c0.3,1.8,2,2.7,3.8,2.4
			C217.6,109.7,218.8,108.2,218.4,106.4z"/>
		<path class="st4" d="M211.9,121.5l6.4-5.2l-6.7,0.4l-0.1-2.1l9.9-0.6l0.1,2.2l-6.2,5l6.4-0.4l0.1,2.1l-9.9,0.6L211.9,121.5z"/>
		<path class="st4" d="M216.7,135.7l1.6,0.3l-0.7-1.5l0.9-0.4l0.6,1.5l0.9-1.3l0.8,0.6l-1,1.3l1.6,0.1l-0.1,0.9l-1.6-0.3l0.7,1.5
			l-0.9,0.4l-0.6-1.5l-0.9,1.3l-0.7-0.6l1-1.3l-1.6-0.1L216.7,135.7z"/>
		<path class="st4" d="M209,147.2l9.5,3l-1.4,4.4c-0.6,2.1-2.4,2.8-4.1,2.2c-1.7-0.5-2.7-2.1-2-4.1l0.8-2.4l-3.4-1.1L209,147.2z
			 M215.5,153.8l0.7-2.2l-2.6-0.8l-0.7,2.2c-0.3,0.8,0.1,1.6,0.9,1.8C214.5,155,215.2,154.6,215.5,153.8z"/>
		<path class="st4" d="M203.8,161.3l4.1-0.4l0.6-1.4l-3.3-1.4l0.9-1.9l9.1,4l-1.9,4.3c-0.8,1.9-2.6,2.5-4.3,1.8
			c-1.6-0.7-2-2.1-1.8-3.2l-4.4,0.5L203.8,161.3z M211.8,163.4l0.9-2l-2.5-1.1l-0.9,2c-0.3,0.8-0.1,1.6,0.7,1.9
			C210.7,164.6,211.4,164.2,211.8,163.4z"/>
		<path class="st4" d="M202,165l8.6,5l-3.5,6.1l-1.6-0.9l2.5-4.3l-1.9-1.1l-2.4,4.2l-1.6-0.9l2.4-4.2l-2-1.2l-2.5,4.3l-1.6-0.9
			L202,165z"/>
		<path class="st4" d="M199.7,174.8c-1,0.1-2.1,0.7-2.9,1.8c-0.7,0.9-0.6,1.7-0.1,2.1c0.6,0.4,1.3-0.1,2.2-0.9
			c1.3-1.1,2.8-2.5,4.6-1.2c1.3,1,1.6,2.9,0.2,4.8c-0.9,1.3-2.1,2.1-3.4,2.3l-0.6-1.9c1.1-0.2,2-0.9,2.6-1.7c0.6-0.8,0.5-1.4,0-1.8
			c-0.5-0.4-1.2,0.2-2.1,0.9c-1.3,1.1-2.9,2.5-4.7,1.2c-1.5-1.1-1.8-2.9-0.3-5.1c1.1-1.5,2.4-2.3,3.8-2.5L199.7,174.8z"/>
		<path class="st4" d="M192.1,179.9l7.4,6.6l-4.7,5.3l-1.4-1.2l3.3-3.7l-1.6-1.4L192,189l-1.4-1.2l3.2-3.6l-1.7-1.5l-3.3,3.7
			l-1.4-1.2L192.1,179.9z"/>
		<path class="st4" d="M182,190.2l3.8,1.3l1.2-1l-2.4-2.6l1.6-1.4l6.7,7.4l-3.5,3.1c-1.5,1.4-3.4,1.2-4.6-0.1
			c-1.2-1.3-1-2.7-0.4-3.7l-4.2-1.3L182,190.2z M188.4,195.4l1.6-1.5l-1.8-2l-1.6,1.5c-0.6,0.6-0.7,1.4-0.2,2
			C187,196,187.8,195.9,188.4,195.4z"/>
		<path class="st4" d="M176.8,194.4l8.9,5.8l-2,1.4L177,197l2.2,7.8l-2,1.4l-2.7-10.3L176.8,194.4z"/>
		<path class="st4" d="M165.1,201.7l1.4,1.2l3.9-2.2l-0.3-1.8l2-1.1l1.5,10.6l-2.3,1.3l-8.2-6.8L165.1,201.7z M171.6,207.4l-0.8-4.8
			l-2.9,1.6L171.6,207.4z"/>
		<path class="st4" d="M160.8,203.8l3.3,7.4l2.7-1.2l0.8,1.7l-7.3,3.2l-0.8-1.7l2.7-1.2l-3.3-7.4L160.8,203.8z"/>
		<path class="st4" d="M154.8,206.2l3.3,9.4l-2,0.7l-3.3-9.4L154.8,206.2z"/>
		<path class="st4" d="M148.7,218.7c-2.9,0.7-5.6-0.8-6.3-3.7c-0.7-2.9,0.9-5.5,3.8-6.3c2.9-0.7,5.6,0.8,6.3,3.7
			S151.6,218,148.7,218.7z M148.2,216.9c1.8-0.4,2.6-2.1,2.1-3.9c-0.5-1.8-1.9-2.9-3.7-2.4s-2.6,2.1-2.1,3.9
			C144.9,216.2,146.4,217.3,148.2,216.9z"/>
		<path class="st4" d="M132.8,211.2l5.5,6.1l-0.8-6.6l2.1-0.2l1.2,9.9l-2.2,0.3l-5.3-5.9l0.8,6.4l-2.1,0.2l-1.2-9.9L132.8,211.2z"/>
		<path class="st4" d="M118.9,216.8l-0.2,1.6l1.4-0.8l0.4,0.8l-1.5,0.6l1.4,0.8l-0.5,0.8l-1.3-1l0,1.6l-0.9-0.1l0.2-1.6l-1.4,0.8
			l-0.4-0.9l1.5-0.6l-1.4-0.8l0.5-0.8l1.3,1l0-1.6L118.9,216.8z"/>
		<path class="st4" d="M101.6,208.3l1,3.9l1.5,0.4l0.9-3.5l2.1,0.5l-2.5,9.6l-4.5-1.2c-2-0.5-2.9-2.1-2.4-3.9
			c0.4-1.7,1.7-2.3,2.8-2.3l-1.2-4.2L101.6,208.3z M100.8,216.5l2.2,0.6l0.7-2.7l-2.2-0.6c-0.8-0.2-1.6,0.1-1.8,1
			C99.5,215.6,99.9,216.3,100.8,216.5z"/>
		<path class="st4" d="M97.6,207.1l-3.5,9.3l-6.6-2.5l0.6-1.7l4.6,1.7l0.8-2l-4.5-1.7l0.6-1.7l4.5,1.7l0.8-2.2l-4.6-1.7l0.6-1.7
			L97.6,207.1z"/>
		<path class="st4" d="M86.9,202.7l-1.1,10.6l-2.2-1.1l1-8.1l-5.9,5.6l-2.2-1.1l7.9-7.2L86.9,202.7z"/>
		<path class="st4" d="M80.2,199.1l-5.2,8.5l-1.8-1.1l5.2-8.5L80.2,199.1z"/>
		<path class="st4" d="M74.7,195.5l-4.8,6.5l2.4,1.7l-1.1,1.5l-6.4-4.7l1.1-1.5l2.3,1.7l4.8-6.5L74.7,195.5z"/>
		<path class="st4" d="M65.1,187.6l-0.7,1.7l3.3,3l1.6-0.9l1.7,1.5l-9.5,4.9l-2-1.8l3.8-10L65.1,187.6z M61.8,195.5l4.3-2.3
			l-2.5-2.2L61.8,195.5z"/>
		<path class="st4" d="M62.7,185.2l-7.4,6.7l-1.4-1.6l6-5.4l-2.8-3.1l1.4-1.3L62.7,185.2z"/>
		<path class="st4" d="M57.4,179.2l-7.8,6.2l-1.3-1.7l7.8-6.2L57.4,179.2z"/>
		<path class="st4" d="M54.9,176.1l-1.4,1l-7.9-0.4l2.6,3.9l-1.5,1l-4.2-6.2l1.4-0.9l7.9,0.4l-2.7-4l1.6-1L54.9,176.1z"/>
		<path class="st4" d="M46.6,162.2l-1.2,1.4l2.1,3.9l1.8-0.2l1.1,2.1l-10.6,1.2l-1.2-2.4l7.1-8L46.6,162.2z M40.7,168.5l4.8-0.6
			l-1.5-2.9L40.7,168.5z"/>
		<path class="st4" d="M44.7,157.8l-7.5,3l1.1,2.7l-1.7,0.7l-3-7.4l1.7-0.7l1.1,2.7l7.5-3L44.7,157.8z"/>
		<path class="st4" d="M42.4,151.7l-9.5,3l-0.6-2l9.5-3L42.4,151.7z"/>
		<path class="st4" d="M30.2,145.2c-0.6-2.9,1-5.5,3.9-6.2c2.9-0.6,5.5,1,6.1,4c0.6,2.9-1,5.5-3.9,6.2
			C33.4,149.8,30.8,148.1,30.2,145.2z M32,144.8c0.4,1.8,2,2.6,3.8,2.2c1.8-0.4,2.9-1.8,2.5-3.6c-0.4-1.8-2-2.7-3.8-2.3
			C32.7,141.5,31.6,143,32,144.8z"/>
		<path class="st4" d="M38.2,129.5l-6.3,5.3l6.7-0.6l0.2,2.1l-9.9,0.8l-0.2-2.2l6-5.1l-6.4,0.5l-0.2-2.1l9.9-0.8L38.2,129.5z"/>
		<path class="st4" d="M33.1,115.5l-1.6-0.2l0.7,1.5l-0.8,0.4l-0.6-1.5l-0.9,1.4l-0.8-0.5l1-1.3l-1.6-0.1l0.1-0.9l1.6,0.2l-0.7-1.5
			l0.9-0.4l0.6,1.5l0.9-1.4l0.8,0.6l-1,1.3l1.6,0.1L33.1,115.5z"/>
		<path class="st4" d="M42.1,98.4l-4,0.9l-0.4,1.5l3.4,1l-0.6,2l-9.6-2.8l1.3-4.5c0.6-2,2.2-2.8,4-2.3c1.7,0.5,2.3,1.8,2.2,2.9
			l4.3-1.1L42.1,98.4z M33.9,97.4l-0.6,2.1l2.6,0.8l0.6-2.1c0.2-0.8-0.1-1.6-0.9-1.8C34.8,96.1,34.1,96.6,33.9,97.4z"/>
		<path class="st4" d="M43.4,94.5l-9.2-3.8l2.7-6.5l1.7,0.7l-1.9,4.6l2,0.8l1.8-4.5l1.7,0.7L40.3,91l2.1,0.9l1.9-4.6L46,88
			L43.4,94.5z"/>
		<path class="st4" d="M42.2,84.5c-2.7-1.5-3.4-4.5-2-7.1c1.1-2,2.7-2.5,4.2-2.6l-0.1,2c-0.9,0-1.9,0.5-2.4,1.4
			c-0.8,1.5-0.2,3.3,1.4,4.2c1.7,0.9,3.5,0.4,4.3-1.1c0.5-1,0.4-2.1-0.1-2.8l1.6-1.2c0.7,1.2,1.2,2.9,0.1,4.9
			C47.8,84.9,44.9,85.9,42.2,84.5z"/>
		<path class="st4" d="M51.9,77.4l-8.2-5.7l1.2-1.7l6.6,4.6l2.4-3.5l1.5,1.1L51.9,77.4z"/>
		<path class="st4" d="M61,65.6L59.3,65l-2.9,3.4l0.9,1.6l-1.5,1.8l-5-9.4l1.7-2l10,3.6L61,65.6z M53,62.5l2.4,4.2l2.2-2.5L53,62.5z
			"/>
		<path class="st4" d="M69.7,57.4l-4.8-5.4l2.7,7.2l-0.7,0.6l-6.9-3.5l4.8,5.4l-1.6,1.4l-6.6-7.5l2.2-2l5.9,3l-2.3-6.3l2.2-2
			l6.6,7.5L69.7,57.4z"/>
		<path class="st4" d="M78.7,50.9l-1.5-1.1l-3.7,2.5l0.4,1.8l-1.9,1.3L69.7,45l2.2-1.5l8.7,6.1L78.7,50.9z M71.8,45.8l1.2,4.7
			l2.7-1.8L71.8,45.8z"/>
		<path class="st4" d="M82.8,48.6L79,41.4l-2.6,1.4l-0.9-1.6l7-3.8l0.9,1.6l-2.5,1.4l3.8,7.1L82.8,48.6z"/>
		<path class="st4" d="M88.7,45.6l-4.1-9.1l1.9-0.9l4.1,9.1L88.7,45.6z"/>
		<path class="st4" d="M93.7,32.7c2.9-1,5.6,0.4,6.6,3.2c1,2.8-0.4,5.6-3.3,6.6c-2.8,1-5.6-0.4-6.6-3.2
			C89.5,36.4,90.9,33.7,93.7,32.7z M94.4,34.5c-1.7,0.6-2.4,2.3-1.8,4.1c0.6,1.8,2.2,2.7,3.9,2.1c1.7-0.6,2.4-2.3,1.8-4.1
			C97.7,34.8,96.1,33.9,94.4,34.5z"/>
		<path class="st4" d="M110.2,38.9l-6-5.6l1.3,6.6l-2.1,0.4l-2-9.8l2.1-0.4l5.8,5.4l-1.3-6.3l2.1-0.4l2,9.8L110.2,38.9z"/>
		<path class="st4" d="M124.2,31.8l0.1-1.7l-1.5,0.9l-0.5-0.9l1.5-0.8l-1.5-0.8l0.5-0.9l1.5,0.9l-0.1-1.7l1,0l-0.1,1.7l1.5-0.9
			l0.5,0.9l-1.5,0.8l1.5,0.8l-0.5,0.9l-1.5-0.9l0.1,1.7L124.2,31.8z"/>
	</g>
</g>
<g>
	<g>
		<path class="st5" d="M117.9,146.4l-1.2,6.3H84.3V91.9l6.7-1.2v55.8H117.9z"/>
	</g>
</g>
<g>
	<g>
		<path class="st5" d="M170.4,138.1h-8.1V153h-6.4v-14.9h-30.2l36.6-49.2v43.2h8.1V138.1z M155.9,132.1V108L138,132.1H155.9z"/>
	</g>
</g>
<g>
</g>
<g>
</g>
<g>
</g>
<g>
</g>
<g>
</g>
<g>
</g>
<g>
</g>
<g>
</g>
<g>
</g>
<g>
</g>
<g>
</g>
<g>
</g>
<g>
</g>
<g>
</g>
<g>
</g>
</svg>
